<svg width="36" height="36" viewBox="0 0 36 36" fill="none" xmlns="http://www.w3.org/2000/svg">
<path d="M31.5 13.5L21.8272 20.4091C21.5333 20.6191 21.3864 20.724 21.229 20.7557C21.0903 20.7836 20.9465 20.7717 20.8143 20.7214C20.6642 20.6642 20.5366 20.5366 20.2812 20.2812L15.7188 15.7188C15.4634 15.4634 15.3358 15.3358 15.1857 15.2786C15.0535 15.2283 14.9097 15.2164 14.771 15.2443C14.6136 15.276 14.4667 15.3809 14.1728 15.5909L4.5 22.5M11.7 31.5H24.3C26.8202 31.5 28.0804 31.5 29.043 31.0095C29.8897 30.5781 30.5781 29.8897 31.0095 29.043C31.5 28.0804 31.5 26.8202 31.5 24.3V11.7C31.5 9.17976 31.5 7.91965 31.0095 6.95704C30.5781 6.11031 29.8897 5.4219 29.043 4.99047C28.0804 4.5 26.8202 4.5 24.3 4.5H11.7C9.17976 4.5 7.91965 4.5 6.95704 4.99047C6.11031 5.4219 5.4219 6.11031 4.99047 6.95704C4.5 7.91965 4.5 9.17976 4.5 11.7V24.3C4.5 26.8202 4.5 28.0804 4.99047 29.043C5.4219 29.8897 6.11031 30.5781 6.95704 31.0095C7.91965 31.5 9.17976 31.5 11.7 31.5Z" stroke="#7F56D9" stroke-width="2" stroke-linecap="round" stroke-linejoin="round"/>
</svg>
