<svg width="20" height="21" viewBox="0 0 20 21" fill="none" xmlns="http://www.w3.org/2000/svg">
<path d="M16.1182 12.5743L15.2849 11.191C15.1099 10.8827 14.9516 10.2993 14.9516 9.95768V7.84935C14.9516 5.89102 13.8016 4.19935 12.1432 3.40768C11.7099 2.64102 10.9099 2.16602 9.99325 2.16602C9.08491 2.16602 8.26825 2.65768 7.83491 3.43268C6.20991 4.24102 5.08491 5.91602 5.08491 7.84935V9.95768C5.08491 10.2993 4.92658 10.8827 4.75158 11.1827L3.90991 12.5743C3.57658 13.1327 3.50158 13.7493 3.70991 14.316C3.90991 14.8743 4.38491 15.3077 5.00158 15.516C6.61825 16.066 8.31825 16.3327 10.0182 16.3327C11.7182 16.3327 13.4182 16.066 15.0349 15.5243C15.6182 15.3327 16.0682 14.891 16.2849 14.316C16.5016 13.741 16.4432 13.1077 16.1182 12.5743Z" fill="#7C7C7C"/>
<path d="M12.3587 17.1743C12.0087 18.141 11.0837 18.8327 10.0004 18.8327C9.34206 18.8327 8.69206 18.566 8.23372 18.091C7.96706 17.841 7.76706 17.5077 7.65039 17.166C7.75872 17.1827 7.86706 17.191 7.98372 17.2077C8.17539 17.2327 8.37539 17.2577 8.57539 17.2743C9.05039 17.316 9.53372 17.341 10.0171 17.341C10.4921 17.341 10.9671 17.316 11.4337 17.2743C11.6087 17.2577 11.7837 17.2493 11.9504 17.2243C12.0837 17.2077 12.2171 17.191 12.3587 17.1743Z" fill="#7C7C7C"/>
</svg>
