<svg width="28" height="29" viewBox="0 0 28 29" fill="none" xmlns="http://www.w3.org/2000/svg">
<path d="M18.887 2.83325H9.11036C4.8637 2.83325 2.33203 5.36492 2.33203 9.61159V19.3766C2.33203 23.6349 4.8637 26.1666 9.11036 26.1666H18.8754C23.122 26.1666 25.6537 23.6349 25.6537 19.3883V9.61159C25.6654 5.36492 23.1337 2.83325 18.887 2.83325ZM19.5754 11.8166L12.9604 18.4316C12.797 18.5949 12.5754 18.6883 12.342 18.6883C12.1087 18.6883 11.887 18.5949 11.7237 18.4316L8.42203 15.1299C8.0837 14.7916 8.0837 14.2316 8.42203 13.8933C8.76036 13.5549 9.32036 13.5549 9.6587 13.8933L12.342 16.5766L18.3387 10.5799C18.677 10.2416 19.237 10.2416 19.5754 10.5799C19.9137 10.9183 19.9137 11.4666 19.5754 11.8166Z" fill="#17B26A"/>
</svg>
