<svg width="60" height="60" viewBox="0 0 60 60" fill="none" xmlns="http://www.w3.org/2000/svg">
<g filter="url(#filter0_d_1664_32712)">
<path d="M2.5 13C2.5 6.64873 7.64873 1.5 14 1.5H46C52.3513 1.5 57.5 6.64873 57.5 13V45C57.5 51.3513 52.3513 56.5 46 56.5H14C7.64873 56.5 2.5 51.3513 2.5 45V13Z" stroke="#EAECF0" shape-rendering="crispEdges"/>
<path fill-rule="evenodd" clip-rule="evenodd" d="M30.0594 16.458H29.938C28.8898 16.458 28.0157 16.4579 27.3218 16.5512C26.5894 16.6497 25.9281 16.8663 25.3967 17.3977C24.8654 17.9291 24.6487 18.5904 24.5503 19.3228C24.4834 19.8202 24.4645 21.0097 24.4591 22.0296C22.0998 22.1067 20.6833 22.3821 19.6989 23.3665C18.332 24.7333 18.332 26.9332 18.332 31.333C18.332 35.7328 18.332 37.9327 19.6989 39.2995C21.0657 40.6663 23.2656 40.6663 27.6653 40.6663H32.332C36.7318 40.6663 38.9317 40.6663 40.2985 39.2995C41.6654 37.9327 41.6654 35.7328 41.6654 31.333C41.6654 26.9332 41.6654 24.7333 40.2985 23.3665C39.3141 22.3821 37.8976 22.1067 35.5383 22.0296C35.5329 21.0097 35.514 19.8202 35.4471 19.3228C35.3487 18.5904 35.1321 17.9291 34.6007 17.3977C34.0693 16.8663 33.408 16.6497 32.6756 16.5512C31.9817 16.4579 31.1076 16.458 30.0594 16.458ZM33.7879 22.0019C33.7827 21.0141 33.7659 19.9511 33.7127 19.556C33.6404 19.0176 33.5153 18.7872 33.3632 18.6351C33.2112 18.4831 32.9808 18.358 32.4424 18.2856C31.8789 18.2099 31.1234 18.208 29.9987 18.208C28.874 18.208 28.1185 18.2099 27.555 18.2856C27.0166 18.358 26.7862 18.4831 26.6342 18.6351C26.4821 18.7872 26.357 19.0176 26.2847 19.556C26.2315 19.9511 26.2147 21.0141 26.2095 22.0019C26.6661 21.9997 27.1507 21.9997 27.6654 21.9997H32.332C32.8467 21.9997 33.3313 21.9997 33.7879 22.0019ZM29.9987 25.7913C30.4819 25.7913 30.8737 26.1831 30.8737 26.6663V26.6783C32.1439 26.9983 33.207 27.9998 33.207 29.3886C33.207 29.8718 32.8153 30.2636 32.332 30.2636C31.8488 30.2636 31.457 29.8718 31.457 29.3886C31.457 28.9405 30.9603 28.3191 29.9987 28.3191C29.0371 28.3191 28.5404 28.9405 28.5404 29.3886C28.5404 29.8366 29.0371 30.458 29.9987 30.458C31.6145 30.458 33.207 31.5777 33.207 33.2775C33.207 34.6662 32.1439 35.6677 30.8737 35.9877V35.9997C30.8737 36.4829 30.4819 36.8747 29.9987 36.8747C29.5154 36.8747 29.1237 36.4829 29.1237 35.9997V35.9877C27.8534 35.6677 26.7904 34.6662 26.7904 33.2775C26.7904 32.7942 27.1821 32.4025 27.6654 32.4025C28.1486 32.4025 28.5404 32.7942 28.5404 33.2775C28.5404 33.7255 29.0371 34.3469 29.9987 34.3469C30.9603 34.3469 31.457 33.7255 31.457 33.2775C31.457 32.8294 30.9603 32.208 29.9987 32.208C28.3829 32.208 26.7904 31.0883 26.7904 29.3886C26.7904 27.9998 27.8534 26.9983 29.1237 26.6783V26.6663C29.1237 26.1831 29.5154 25.7913 29.9987 25.7913Z" fill="#292D32"/>
</g>
<defs>
<filter id="filter0_d_1664_32712" x="0" y="0" width="60" height="60" filterUnits="userSpaceOnUse" color-interpolation-filters="sRGB">
<feFlood flood-opacity="0" result="BackgroundImageFix"/>
<feColorMatrix in="SourceAlpha" type="matrix" values="0 0 0 0 0 0 0 0 0 0 0 0 0 0 0 0 0 0 127 0" result="hardAlpha"/>
<feOffset dy="1"/>
<feGaussianBlur stdDeviation="1"/>
<feComposite in2="hardAlpha" operator="out"/>
<feColorMatrix type="matrix" values="0 0 0 0 0.0627451 0 0 0 0 0.0941176 0 0 0 0 0.156863 0 0 0 0.05 0"/>
<feBlend mode="normal" in2="BackgroundImageFix" result="effect1_dropShadow_1664_32712"/>
<feBlend mode="normal" in="SourceGraphic" in2="effect1_dropShadow_1664_32712" result="shape"/>
</filter>
</defs>
</svg>
