<svg width="24" height="24" viewBox="0 0 24 24" fill="none" xmlns="http://www.w3.org/2000/svg">
<path d="M21.49 7.80863V7.81V16.19C21.49 17.9106 20.9791 19.2238 20.0964 20.1064C19.2138 20.9891 17.9006 21.5 16.18 21.5H7.81C6.08945 21.5 4.77634 20.9891 3.89377 20.1054C3.01114 19.2217 2.5 17.9059 2.5 16.18V7.81C2.5 6.08944 3.01093 4.77618 3.89355 3.89355C4.77618 3.01093 6.08944 2.5 7.81 2.5H16.19C17.9107 2.5 19.2237 3.01097 20.105 3.89333C20.9861 4.77559 21.4947 6.08838 21.49 7.80863ZM5.11645 11.1164L5.47 11.47L5.11645 11.1164C4.88375 11.3491 4.75 11.6659 4.75 12C4.75 12.3341 4.88375 12.6509 5.11645 12.8836L5.47 12.53L5.11645 12.8836L9.40645 17.1736C9.65515 17.4223 9.97454 17.54 10.29 17.54C10.6055 17.54 10.9248 17.4223 11.1736 17.1736C11.6588 16.6883 11.6588 15.8917 11.1736 15.4064L9.01711 13.25H18C18.6861 13.25 19.25 12.6861 19.25 12C19.25 11.3139 18.6861 10.75 18 10.75H9.01711L11.1736 8.59355C11.6588 8.10829 11.6588 7.31171 11.1736 6.82645C10.6883 6.34118 9.89171 6.34118 9.40645 6.82645L5.11645 11.1164Z" fill="#3D3D3D" stroke="#3D3D3D"/>
</svg>
