<svg width="20" height="21" viewBox="0 0 20 21" fill="none" xmlns="http://www.w3.org/2000/svg">
<path d="M18.3327 10.5013C18.3327 5.90964 14.591 2.16797 9.99935 2.16797C5.40768 2.16797 1.66602 5.90964 1.66602 10.5013C1.66602 12.918 2.70768 15.093 4.35768 16.618C4.35768 16.6263 4.35768 16.6263 4.34935 16.6346C4.43268 16.718 4.53268 16.7846 4.61602 16.8596C4.66602 16.9013 4.70768 16.943 4.75768 16.9763C4.90768 17.1013 5.07435 17.218 5.23268 17.3346C5.29102 17.3763 5.34102 17.4096 5.39935 17.4513C5.55768 17.5596 5.72435 17.6596 5.89935 17.7513C5.95768 17.7846 6.02435 17.8263 6.08268 17.8596C6.24935 17.9513 6.42435 18.0346 6.60768 18.1096C6.67435 18.143 6.74102 18.1763 6.80768 18.2013C6.99102 18.2763 7.17435 18.343 7.35768 18.4013C7.42435 18.4263 7.49102 18.4513 7.55768 18.468C7.75768 18.5263 7.95768 18.5763 8.15768 18.6263C8.21602 18.643 8.27435 18.6596 8.34102 18.668C8.57435 18.718 8.80768 18.7513 9.04935 18.7763C9.08268 18.7763 9.11602 18.7846 9.14935 18.793C9.43268 18.818 9.71602 18.8346 9.99935 18.8346C10.2827 18.8346 10.566 18.818 10.841 18.793C10.8743 18.793 10.9077 18.7846 10.941 18.7763C11.1827 18.7513 11.416 18.718 11.6493 18.668C11.7077 18.6596 11.766 18.6346 11.8327 18.6263C12.0327 18.5763 12.241 18.5346 12.4327 18.468C12.4993 18.443 12.566 18.418 12.6327 18.4013C12.816 18.3346 13.0077 18.2763 13.1827 18.2013C13.2493 18.1763 13.316 18.143 13.3827 18.1096C13.5577 18.0346 13.7327 17.9513 13.9077 17.8596C13.9743 17.8263 14.0327 17.7846 14.091 17.7513C14.2577 17.6513 14.4243 17.5596 14.591 17.4513C14.6494 17.418 14.6993 17.3763 14.7577 17.3346C14.9243 17.218 15.0827 17.1013 15.2327 16.9763C15.2827 16.9346 15.3244 16.893 15.3744 16.8596C15.466 16.7846 15.5577 16.7096 15.641 16.6346C15.641 16.6263 15.641 16.6263 15.6327 16.618C17.291 15.093 18.3327 12.918 18.3327 10.5013ZM14.116 14.643C11.8577 13.1263 8.15768 13.1263 5.88268 14.643C5.51602 14.8846 5.21602 15.168 4.96602 15.4763C3.69935 14.193 2.91602 12.4346 2.91602 10.5013C2.91602 6.59297 6.09102 3.41797 9.99935 3.41797C13.9077 3.41797 17.0827 6.59297 17.0827 10.5013C17.0827 12.4346 16.2994 14.193 15.0327 15.4763C14.791 15.168 14.4827 14.8846 14.116 14.643Z" fill="#7C7C7C"/>
<path d="M10 6.27344C8.275 6.27344 6.875 7.67344 6.875 9.39844C6.875 11.0901 8.2 12.4651 9.95833 12.5151C9.98333 12.5151 10.0167 12.5151 10.0333 12.5151C10.05 12.5151 10.075 12.5151 10.0917 12.5151C10.1 12.5151 10.1083 12.5151 10.1083 12.5151C11.7917 12.4568 13.1167 11.0901 13.125 9.39844C13.125 7.67344 11.725 6.27344 10 6.27344Z" fill="#7C7C7C"/>
</svg>
