<svg width="25" height="24" viewBox="0 0 25 24" fill="none" xmlns="http://www.w3.org/2000/svg">
<path d="M16.5 12.9V17.1C16.5 20.6 15.1 22 11.6 22H7.4C3.9 22 2.5 20.6 2.5 17.1V12.9C2.5 9.4 3.9 8 7.4 8H11.6C15.1 8 16.5 9.4 16.5 12.9Z" fill="#7F56D9"/>
<path d="M17.5978 2H13.3978C10.3147 2 8.86879 3.09409 8.56755 5.73901C8.50453 6.29235 8.96281 6.75 9.51972 6.75H11.5978C15.7978 6.75 17.7478 8.7 17.7478 12.9V14.9781C17.7478 15.535 18.2055 15.9933 18.7588 15.9303C21.4037 15.629 22.4978 14.1831 22.4978 11.1V6.9C22.4978 3.4 21.0978 2 17.5978 2Z" fill="#7F56D9"/>
</svg>
