<svg width="84" height="99" viewBox="0 0 84 99" fill="none" xmlns="http://www.w3.org/2000/svg">
<path d="M42 92.5664C64.9198 92.5664 83.5 73.9565 83.5 51.0001C83.5 28.0437 64.9198 9.43384 42 9.43384C19.0802 9.43384 0.5 28.0437 0.5 51.0001C0.5 73.9565 19.0802 92.5664 42 92.5664Z" fill="#EFEFEF"/>
<g filter="url(#filter0_d_63_10659)">
<path d="M65.7908 33.2659H18.2042C16.6762 33.2659 15.4375 34.5065 15.4375 36.037V94.2297C15.4375 95.7602 16.6762 97.0008 18.2042 97.0008H65.7908C67.3188 97.0008 68.5575 95.7602 68.5575 94.2297V36.037C68.5575 34.5065 67.3188 33.2659 65.7908 33.2659Z" fill="white"/>
</g>
<path d="M36.4627 41.5784H22.076C21.1592 41.5784 20.416 42.3228 20.416 43.241C20.416 44.1593 21.1592 44.9037 22.076 44.9037H36.4627C37.3795 44.9037 38.1227 44.1593 38.1227 43.241C38.1227 42.3228 37.3795 41.5784 36.4627 41.5784Z" fill="#DCDCDC"/>
<path d="M46.4227 48.7815H22.076C21.1592 48.7815 20.416 49.5259 20.416 50.4441C20.416 51.3624 21.1592 52.1068 22.076 52.1068H46.4227C47.3395 52.1068 48.0827 51.3624 48.0827 50.4441C48.0827 49.5259 47.3395 48.7815 46.4227 48.7815Z" fill="#EFEFEF"/>
<path d="M36.4627 56.5432H22.076C21.1592 56.5432 20.416 57.2876 20.416 58.2059C20.416 59.1241 21.1592 59.8685 22.076 59.8685H36.4627C37.3795 59.8685 38.1227 59.1241 38.1227 58.2059C38.1227 57.2876 37.3795 56.5432 36.4627 56.5432Z" fill="#DCDCDC"/>
<path d="M46.4227 63.7463H22.076C21.1592 63.7463 20.416 64.4907 20.416 65.409C20.416 66.3272 21.1592 67.0716 22.076 67.0716H46.4227C47.3395 67.0716 48.0827 66.3272 48.0827 65.409C48.0827 64.4907 47.3395 63.7463 46.4227 63.7463Z" fill="#EFEFEF"/>
<path d="M36.4627 71.5042H22.076C21.1592 71.5042 20.416 72.2485 20.416 73.1668C20.416 74.0851 21.1592 74.8295 22.076 74.8295H36.4627C37.3795 74.8295 38.1227 74.0851 38.1227 73.1668C38.1227 72.2485 37.3795 71.5042 36.4627 71.5042Z" fill="#DCDCDC"/>
<path d="M46.4227 78.7073H22.076C21.1592 78.7073 20.416 79.4517 20.416 80.3699C20.416 81.2882 21.1592 82.0326 22.076 82.0326H46.4227C47.3395 82.0326 48.0827 81.2882 48.0827 80.3699C48.0827 79.4517 47.3395 78.7073 46.4227 78.7073Z" fill="#EFEFEF"/>
<g filter="url(#filter1_d_63_10659)">
<path d="M65.7908 5H18.2042C16.6762 5 15.4375 6.24066 15.4375 7.77108V24.3976C15.4375 25.928 16.6762 27.1687 18.2042 27.1687H65.7908C67.3188 27.1687 68.5575 25.928 68.5575 24.3976V7.77108C68.5575 6.24066 67.3188 5 65.7908 5Z" fill="#1E1E1E"/>
</g>
<path d="M36.4646 11.0938H22.078C21.1612 11.0938 20.418 11.8381 20.418 12.7564C20.418 13.6747 21.1612 14.4191 22.078 14.4191H36.4646C37.3814 14.4191 38.1246 13.6747 38.1246 12.7564C38.1246 11.8381 37.3814 11.0938 36.4646 11.0938Z" fill="#EFEFEF"/>
<path d="M46.4246 18.2969H22.078C21.1612 18.2969 20.418 19.0413 20.418 19.9595C20.418 20.8778 21.1612 21.6222 22.078 21.6222H46.4246C47.3414 21.6222 48.0846 20.8778 48.0846 19.9595C48.0846 19.0413 47.3414 18.2969 46.4246 18.2969Z" fill="white"/>
<defs>
<filter id="filter0_d_63_10659" x="12.1122" y="28.2779" width="59.7697" height="70.3855" filterUnits="userSpaceOnUse" color-interpolation-filters="sRGB">
<feFlood flood-opacity="0" result="BackgroundImageFix"/>
<feColorMatrix in="SourceAlpha" type="matrix" values="0 0 0 0 0 0 0 0 0 0 0 0 0 0 0 0 0 0 127 0" result="hardAlpha"/>
<feOffset dy="-1.66265"/>
<feGaussianBlur stdDeviation="1.66265"/>
<feColorMatrix type="matrix" values="0 0 0 0 0.788235 0 0 0 0 0.803922 0 0 0 0 0.85098 0 0 0 0.349 0"/>
<feBlend mode="normal" in2="BackgroundImageFix" result="effect1_dropShadow_63_10659"/>
<feBlend mode="normal" in="SourceGraphic" in2="effect1_dropShadow_63_10659" result="shape"/>
</filter>
<filter id="filter1_d_63_10659" x="12.1122" y="0.0120482" width="59.7697" height="28.8193" filterUnits="userSpaceOnUse" color-interpolation-filters="sRGB">
<feFlood flood-opacity="0" result="BackgroundImageFix"/>
<feColorMatrix in="SourceAlpha" type="matrix" values="0 0 0 0 0 0 0 0 0 0 0 0 0 0 0 0 0 0 127 0" result="hardAlpha"/>
<feOffset dy="-1.66265"/>
<feGaussianBlur stdDeviation="1.66265"/>
<feColorMatrix type="matrix" values="0 0 0 0 0.788235 0 0 0 0 0.803922 0 0 0 0 0.85098 0 0 0 0.349 0"/>
<feBlend mode="normal" in2="BackgroundImageFix" result="effect1_dropShadow_63_10659"/>
<feBlend mode="normal" in="SourceGraphic" in2="effect1_dropShadow_63_10659" result="shape"/>
</filter>
</defs>
</svg>
