<svg width="60" height="60" viewBox="0 0 60 60" fill="none" xmlns="http://www.w3.org/2000/svg">
<path d="M10.4431 10.2647C11.8725 4.93007 17.3558 1.76424 22.6905 3.19366L49.7364 10.4406C55.0711 11.87 58.2369 17.3534 56.8075 22.688L49.5606 49.734C48.1311 55.0686 42.6478 58.2344 37.3131 56.805L10.2672 49.5581C4.93253 48.1287 1.76671 42.6453 3.19613 37.3106L10.4431 10.2647Z" fill="#FFC554"/>
<g filter="url(#filter0_b_123_63829)">
<path d="M1 27C1 21.3995 1 18.5992 2.08993 16.4601C3.04867 14.5785 4.57847 13.0487 6.46009 12.0899C8.59921 11 11.3995 11 17 11H33C38.6005 11 41.4008 11 43.5399 12.0899C45.4215 13.0487 46.9513 14.5785 47.9101 16.4601C49 18.5992 49 21.3995 49 27V43C49 48.6005 49 51.4008 47.9101 53.5399C46.9513 55.4215 45.4215 56.9513 43.5399 57.9101C41.4008 59 38.6005 59 33 59H17C11.3995 59 8.59921 59 6.46009 57.9101C4.57847 56.9513 3.04867 55.4215 2.08993 53.5399C1 51.4008 1 48.6005 1 43V27Z" fill="white" fill-opacity="0.2"/>
<path d="M1.5 27C1.5 24.1915 1.50039 22.1152 1.63458 20.4727C1.7683 18.8361 2.03237 17.6744 2.53544 16.6871C3.44624 14.8996 4.89955 13.4462 6.68709 12.5354C7.67441 12.0324 8.83613 11.7683 10.4727 11.6346C12.1152 11.5004 14.1915 11.5 17 11.5H33C35.8085 11.5 37.8848 11.5004 39.5273 11.6346C41.1639 11.7683 42.3256 12.0324 43.3129 12.5354C45.1004 13.4462 46.5538 14.8996 47.4646 16.6871C47.9676 17.6744 48.2317 18.8361 48.3654 20.4727C48.4996 22.1152 48.5 24.1915 48.5 27V43C48.5 45.8085 48.4996 47.8848 48.3654 49.5273C48.2317 51.1639 47.9676 52.3256 47.4646 53.3129C46.5538 55.1004 45.1004 56.5538 43.3129 57.4646C42.3256 57.9676 41.1639 58.2317 39.5273 58.3654C37.8848 58.4996 35.8085 58.5 33 58.5H17C14.1915 58.5 12.1152 58.4996 10.4727 58.3654C8.83613 58.2317 7.67442 57.9676 6.68709 57.4646C4.89955 56.5538 3.44624 55.1004 2.53544 53.3129C2.03237 52.3256 1.7683 51.1639 1.63458 49.5273C1.50039 47.8848 1.5 45.8085 1.5 43V27Z" stroke="white" stroke-opacity="0.6"/>
<path d="M28 39C28 42.59 25.09 45.5 21.5 45.5C17.91 45.5 15 42.59 15 39C15 35.41 17.91 32.5 21.5 32.5C21.67 32.5 21.85 32.51 22.02 32.52C25.19 32.77 27.73 35.31 27.98 38.48C27.99 38.65 28 38.83 28 39Z" fill="white"/>
<path d="M35.0001 32C35.0001 35.26 32.6001 37.95 29.4801 38.42V38.36C29.1701 34.48 26.0201 31.33 22.1101 31.02H22.0801C22.5501 27.9 25.2401 25.5 28.5001 25.5C32.0901 25.5 35.0001 28.41 35.0001 32Z" fill="white"/>
<path d="M18.59 25.5H16C15.45 25.5 15 25.95 15 26.5V29.09C15 29.98 16.08 30.43 16.71 29.8L19.3 27.21C19.92 26.58 19.48 25.5 18.59 25.5Z" fill="white"/>
<path d="M31.4097 45.4998H33.9997C34.5497 45.4998 34.9997 45.0498 34.9997 44.4998V41.9098C34.9997 41.0198 33.9197 40.5698 33.2897 41.1998L30.6997 43.7898C30.0797 44.4198 30.5197 45.4998 31.4097 45.4998Z" fill="white"/>
</g>
<defs>
<filter id="filter0_b_123_63829" x="-15" y="-5" width="80" height="80" filterUnits="userSpaceOnUse" color-interpolation-filters="sRGB">
<feFlood flood-opacity="0" result="BackgroundImageFix"/>
<feGaussianBlur in="BackgroundImageFix" stdDeviation="8"/>
<feComposite in2="SourceAlpha" operator="in" result="effect1_backgroundBlur_123_63829"/>
<feBlend mode="normal" in="SourceGraphic" in2="effect1_backgroundBlur_123_63829" result="shape"/>
</filter>
</defs>
</svg>
