<svg width="60" height="60" viewBox="0 0 60 60" fill="none" xmlns="http://www.w3.org/2000/svg">
<path d="M10.4431 10.2647C11.8725 4.93007 17.3558 1.76424 22.6905 3.19366L49.7364 10.4406C55.0711 11.87 58.2369 17.3534 56.8075 22.688L49.5606 49.734C48.1311 55.0686 42.6478 58.2344 37.3131 56.805L10.2672 49.5581C4.93253 48.1287 1.76671 42.6453 3.19613 37.3106L10.4431 10.2647Z" fill="#41AFFF"/>
<g filter="url(#filter0_b_123_63800)">
<path d="M1 27C1 21.3995 1 18.5992 2.08993 16.4601C3.04867 14.5785 4.57847 13.0487 6.46009 12.0899C8.59921 11 11.3995 11 17 11H33C38.6005 11 41.4008 11 43.5399 12.0899C45.4215 13.0487 46.9513 14.5785 47.9101 16.4601C49 18.5992 49 21.3995 49 27V43C49 48.6005 49 51.4008 47.9101 53.5399C46.9513 55.4215 45.4215 56.9513 43.5399 57.9101C41.4008 59 38.6005 59 33 59H17C11.3995 59 8.59921 59 6.46009 57.9101C4.57847 56.9513 3.04867 55.4215 2.08993 53.5399C1 51.4008 1 48.6005 1 43V27Z" fill="white" fill-opacity="0.2"/>
<path d="M1.5 27C1.5 24.1915 1.50039 22.1152 1.63458 20.4727C1.7683 18.8361 2.03237 17.6744 2.53544 16.6871C3.44624 14.8996 4.89955 13.4462 6.68709 12.5354C7.67441 12.0324 8.83613 11.7683 10.4727 11.6346C12.1152 11.5004 14.1915 11.5 17 11.5H33C35.8085 11.5 37.8848 11.5004 39.5273 11.6346C41.1639 11.7683 42.3256 12.0324 43.3129 12.5354C45.1004 13.4462 46.5538 14.8996 47.4646 16.6871C47.9676 17.6744 48.2317 18.8361 48.3654 20.4727C48.4996 22.1152 48.5 24.1915 48.5 27V43C48.5 45.8085 48.4996 47.8848 48.3654 49.5273C48.2317 51.1639 47.9676 52.3256 47.4646 53.3129C46.5538 55.1004 45.1004 56.5538 43.3129 57.4646C42.3256 57.9676 41.1639 58.2317 39.5273 58.3654C37.8848 58.4996 35.8085 58.5 33 58.5H17C14.1915 58.5 12.1152 58.4996 10.4727 58.3654C8.83613 58.2317 7.67442 57.9676 6.68709 57.4646C4.89955 56.5538 3.44624 55.1004 2.53544 53.3129C2.03237 52.3256 1.7683 51.1639 1.63458 49.5273C1.50039 47.8848 1.5 45.8085 1.5 43V27Z" stroke="white" stroke-opacity="0.6"/>
<path d="M18 38.5C15.79 38.5 14 40.29 14 42.5C14 43.25 14.21 43.96 14.58 44.56C15.27 45.72 16.54 46.5 18 46.5C19.46 46.5 20.73 45.72 21.42 44.56C21.79 43.96 22 43.25 22 42.5C22 40.29 20.21 38.5 18 38.5ZM19.49 43.23H18.75V44.01C18.75 44.42 18.41 44.76 18 44.76C17.59 44.76 17.25 44.42 17.25 44.01V43.23H16.51C16.1 43.23 15.76 42.89 15.76 42.48C15.76 42.07 16.1 41.73 16.51 41.73H17.25V41.02C17.25 40.61 17.59 40.27 18 40.27C18.41 40.27 18.75 40.61 18.75 41.02V41.73H19.49C19.9 41.73 20.24 42.07 20.24 42.48C20.24 42.89 19.91 43.23 19.49 43.23Z" fill="white"/>
<path d="M34.5 36H32C30.9 36 30 36.9 30 38C30 39.1 30.9 40 32 40H34.5C34.78 40 35 39.78 35 39.5V36.5C35 36.22 34.78 36 34.5 36Z" fill="white"/>
<path d="M29.5292 28.9002C29.8292 29.1902 29.5792 29.6402 29.1592 29.6402L20.8792 29.6302C20.3992 29.6302 20.1592 29.0502 20.4992 28.7102L22.2492 26.9502C23.7292 25.4802 26.1192 25.4802 27.5992 26.9502L29.4892 28.8602C29.4992 28.8702 29.5192 28.8902 29.5292 28.9002Z" fill="white"/>
<path d="M34.8694 42.16C34.2594 44.22 32.4994 45.5 30.0994 45.5H23.5994C23.2094 45.5 22.9594 45.07 23.1194 44.71C23.4194 44.01 23.6094 43.22 23.6094 42.5C23.6094 39.47 21.1394 37 18.1094 37C17.3494 37 16.6094 37.16 15.9294 37.46C15.5594 37.62 15.1094 37.37 15.1094 36.97V35.5C15.1094 32.78 16.7494 30.88 19.2994 30.56C19.5494 30.52 19.8194 30.5 20.0994 30.5H30.0994C30.3594 30.5 30.6094 30.51 30.8494 30.55C32.8694 30.78 34.3294 32.01 34.8694 33.84C34.9694 34.17 34.7294 34.5 34.3894 34.5H32.0994C29.9294 34.5 28.2094 36.48 28.6794 38.73C29.0094 40.37 30.5294 41.5 32.1994 41.5H34.3894C34.7394 41.5 34.9694 41.84 34.8694 42.16Z" fill="white"/>
</g>
<defs>
<filter id="filter0_b_123_63800" x="-15" y="-5" width="80" height="80" filterUnits="userSpaceOnUse" color-interpolation-filters="sRGB">
<feFlood flood-opacity="0" result="BackgroundImageFix"/>
<feGaussianBlur in="BackgroundImageFix" stdDeviation="8"/>
<feComposite in2="SourceAlpha" operator="in" result="effect1_backgroundBlur_123_63800"/>
<feBlend mode="normal" in="SourceGraphic" in2="effect1_backgroundBlur_123_63800" result="shape"/>
</filter>
</defs>
</svg>
