<svg width="60" height="60" viewBox="0 0 60 60" fill="none" xmlns="http://www.w3.org/2000/svg">
<path d="M10.4431 10.2647C11.8725 4.93007 17.3558 1.76424 22.6905 3.19366L49.7364 10.4406C55.0711 11.87 58.2369 17.3534 56.8075 22.688L49.5606 49.734C48.1311 55.0686 42.6478 58.2344 37.3131 56.805L10.2672 49.5581C4.93253 48.1287 1.76671 42.6453 3.19613 37.3106L10.4431 10.2647Z" fill="#17B26A"/>
<g filter="url(#filter0_b_123_63820)">
<path d="M1 27C1 21.3995 1 18.5992 2.08993 16.4601C3.04867 14.5785 4.57847 13.0487 6.46009 12.0899C8.59921 11 11.3995 11 17 11H33C38.6005 11 41.4008 11 43.5399 12.0899C45.4215 13.0487 46.9513 14.5785 47.9101 16.4601C49 18.5992 49 21.3995 49 27V43C49 48.6005 49 51.4008 47.9101 53.5399C46.9513 55.4215 45.4215 56.9513 43.5399 57.9101C41.4008 59 38.6005 59 33 59H17C11.3995 59 8.59921 59 6.46009 57.9101C4.57847 56.9513 3.04867 55.4215 2.08993 53.5399C1 51.4008 1 48.6005 1 43V27Z" fill="white" fill-opacity="0.3"/>
<path d="M1.5 27C1.5 24.1915 1.50039 22.1152 1.63458 20.4727C1.7683 18.8361 2.03237 17.6744 2.53544 16.6871C3.44624 14.8996 4.89955 13.4462 6.68709 12.5354C7.67441 12.0324 8.83613 11.7683 10.4727 11.6346C12.1152 11.5004 14.1915 11.5 17 11.5H33C35.8085 11.5 37.8848 11.5004 39.5273 11.6346C41.1639 11.7683 42.3256 12.0324 43.3129 12.5354C45.1004 13.4462 46.5538 14.8996 47.4646 16.6871C47.9676 17.6744 48.2317 18.8361 48.3654 20.4727C48.4996 22.1152 48.5 24.1915 48.5 27V43C48.5 45.8085 48.4996 47.8848 48.3654 49.5273C48.2317 51.1639 47.9676 52.3256 47.4646 53.3129C46.5538 55.1004 45.1004 56.5538 43.3129 57.4646C42.3256 57.9676 41.1639 58.2317 39.5273 58.3654C37.8848 58.4996 35.8085 58.5 33 58.5H17C14.1915 58.5 12.1152 58.4996 10.4727 58.3654C8.83613 58.2317 7.67442 57.9676 6.68709 57.4646C4.89955 56.5538 3.44624 55.1004 2.53544 53.3129C2.03237 52.3256 1.7683 51.1639 1.63458 49.5273C1.50039 47.8848 1.5 45.8085 1.5 43V27Z" stroke="white" stroke-opacity="0.6"/>
<path d="M36.0004 38.2202C35.5904 38.2202 35.2504 38.5602 35.2504 38.9702C35.2504 41.9302 33.1904 44.4102 30.4204 45.0602L30.6904 44.6102C30.9004 44.2502 30.7904 43.7902 30.4304 43.5802C30.0804 43.3702 29.6104 43.4802 29.4004 43.8402L28.3504 45.5902C28.2104 45.8202 28.2104 46.1102 28.3404 46.3402C28.4704 46.5802 28.7204 46.7202 28.9904 46.7202C33.2604 46.7202 36.7404 43.2402 36.7404 38.9702C36.7504 38.5602 36.4104 38.2202 36.0004 38.2202Z" fill="white"/>
<path d="M21 23.2202C16.73 23.2202 13.25 26.7002 13.25 30.9702C13.25 31.3802 13.59 31.7202 14 31.7202C14.41 31.7202 14.75 31.3802 14.75 30.9702C14.75 28.0102 16.81 25.5302 19.58 24.8802L19.31 25.3302C19.1 25.6902 19.21 26.1502 19.57 26.3602C19.92 26.5702 20.39 26.4602 20.6 26.1002L21.65 24.3502C21.78 24.1202 21.79 23.8402 21.65 23.6002C21.52 23.3702 21.27 23.2202 21 23.2202Z" fill="white"/>
<path d="M34.5002 31.67C34.5002 34.75 32.2602 37.29 29.3302 37.76C29.3302 37.75 29.3302 37.75 29.3302 37.74C29.0402 34.01 26.0202 30.97 22.2402 30.67C22.7102 27.74 25.2502 25.5 28.3302 25.5C31.7402 25.5 34.5002 28.26 34.5002 31.67Z" fill="white"/>
<path d="M22.8091 37.1998C22.8091 37.0498 22.6391 36.8198 22.4291 36.8198H20.3691V37.5698H22.4291C22.6391 37.5798 22.8091 37.4098 22.8091 37.1998Z" fill="white"/>
<path d="M22.8291 39.0801H22.4291H20.3691V39.8301H22.8391C23.1591 39.8301 23.3791 39.6301 23.3791 39.4501C23.3791 39.2701 23.1491 39.0801 22.8291 39.0801Z" fill="white"/>
<path d="M27.83 37.8499C27.6 34.8199 25.18 32.3999 22.15 32.1699C21.99 32.1599 21.84 32.1499 21.67 32.1499C18.26 32.1499 15.5 34.9099 15.5 38.3299C15.5 41.7399 18.26 44.4999 21.67 44.4999C25.08 44.4999 27.85 41.7399 27.85 38.3299C27.85 38.1599 27.84 38.0099 27.83 37.8499ZM22.83 41.3299H22.17V41.7099C22.17 42.1199 21.83 42.4599 21.42 42.4599C21.01 42.4599 20.67 42.1199 20.67 41.7099V41.3299H19.62C19.21 41.3299 18.87 40.9899 18.87 40.5799V38.3299V36.0799C18.87 35.6699 19.21 35.3299 19.62 35.3299H20.67V34.9499C20.67 34.5399 21.01 34.1999 21.42 34.1999C21.83 34.1999 22.17 34.5399 22.17 34.9499V35.3299H22.43C23.43 35.3299 24.31 36.2099 24.31 37.2099C24.31 37.4999 24.24 37.7699 24.12 38.0199C24.58 38.3599 24.87 38.8799 24.87 39.4599C24.87 40.4899 23.96 41.3299 22.83 41.3299Z" fill="white"/>
</g>
<defs>
<filter id="filter0_b_123_63820" x="-15" y="-5" width="80" height="80" filterUnits="userSpaceOnUse" color-interpolation-filters="sRGB">
<feFlood flood-opacity="0" result="BackgroundImageFix"/>
<feGaussianBlur in="BackgroundImageFix" stdDeviation="8"/>
<feComposite in2="SourceAlpha" operator="in" result="effect1_backgroundBlur_123_63820"/>
<feBlend mode="normal" in="SourceGraphic" in2="effect1_backgroundBlur_123_63820" result="shape"/>
</filter>
</defs>
</svg>
