<svg width="60" height="60" viewBox="0 0 60 60" fill="none" xmlns="http://www.w3.org/2000/svg">
<path d="M10.4431 10.2647C11.8725 4.93007 17.3558 1.76424 22.6905 3.19366L49.7364 10.4406C55.0711 11.87 58.2369 17.3534 56.8075 22.688L49.5606 49.734C48.1311 55.0686 42.6478 58.2344 37.3131 56.805L10.2672 49.5581C4.93253 48.1287 1.76671 42.6453 3.19613 37.3106L10.4431 10.2647Z" fill="#FF6C6C"/>
<g filter="url(#filter0_b_123_63810)">
<path d="M1 27C1 21.3995 1 18.5992 2.08993 16.4601C3.04867 14.5785 4.57847 13.0487 6.46009 12.0899C8.59921 11 11.3995 11 17 11H33C38.6005 11 41.4008 11 43.5399 12.0899C45.4215 13.0487 46.9513 14.5785 47.9101 16.4601C49 18.5992 49 21.3995 49 27V43C49 48.6005 49 51.4008 47.9101 53.5399C46.9513 55.4215 45.4215 56.9513 43.5399 57.9101C41.4008 59 38.6005 59 33 59H17C11.3995 59 8.59921 59 6.46009 57.9101C4.57847 56.9513 3.04867 55.4215 2.08993 53.5399C1 51.4008 1 48.6005 1 43V27Z" fill="white" fill-opacity="0.2"/>
<path d="M1.5 27C1.5 24.1915 1.50039 22.1152 1.63458 20.4727C1.7683 18.8361 2.03237 17.6744 2.53544 16.6871C3.44624 14.8996 4.89955 13.4462 6.68709 12.5354C7.67441 12.0324 8.83613 11.7683 10.4727 11.6346C12.1152 11.5004 14.1915 11.5 17 11.5H33C35.8085 11.5 37.8848 11.5004 39.5273 11.6346C41.1639 11.7683 42.3256 12.0324 43.3129 12.5354C45.1004 13.4462 46.5538 14.8996 47.4646 16.6871C47.9676 17.6744 48.2317 18.8361 48.3654 20.4727C48.4996 22.1152 48.5 24.1915 48.5 27V43C48.5 45.8085 48.4996 47.8848 48.3654 49.5273C48.2317 51.1639 47.9676 52.3256 47.4646 53.3129C46.5538 55.1004 45.1004 56.5538 43.3129 57.4646C42.3256 57.9676 41.1639 58.2317 39.5273 58.3654C37.8848 58.4996 35.8085 58.5 33 58.5H17C14.1915 58.5 12.1152 58.4996 10.4727 58.3654C8.83613 58.2317 7.67442 57.9676 6.68709 57.4646C4.89955 56.5538 3.44624 55.1004 2.53544 53.3129C2.03237 52.3256 1.7683 51.1639 1.63458 49.5273C1.50039 47.8848 1.5 45.8085 1.5 43V27Z" stroke="white" stroke-opacity="0.6"/>
<path d="M23.25 33.53C23.25 34.07 23.4 34.15 23.74 34.27L24.25 34.45V32.75H23.95C23.57 32.75 23.25 33.1 23.25 33.53Z" fill="white"/>
<path d="M25.75 38.2498H26.05C26.44 38.2498 26.75 37.8998 26.75 37.4698C26.75 36.9298 26.6 36.8498 26.26 36.7298L25.75 36.5498V38.2498Z" fill="white"/>
<path d="M32.58 28.98L30.53 31.03C30.38 31.18 30.19 31.25 30 31.25C29.81 31.25 29.62 31.18 29.47 31.03C29.18 30.74 29.18 30.26 29.47 29.97L31.52 27.92C29.76 26.42 27.49 25.5 25 25.5C19.48 25.5 15 29.98 15 35.5C15 41.02 19.48 45.5 25 45.5C30.52 45.5 35 41.02 35 35.5C35 33.01 34.08 30.74 32.58 28.98ZM26.75 35.32C27.39 35.55 28.25 36.01 28.25 37.48C28.25 38.73 27.26 39.76 26.05 39.76H25.75V40.01C25.75 40.42 25.41 40.76 25 40.76C24.59 40.76 24.25 40.42 24.25 40.01V39.76H24.17C22.84 39.76 21.75 38.64 21.75 37.26C21.75 36.84 22.09 36.5 22.5 36.5C22.91 36.5 23.25 36.84 23.25 37.25C23.25 37.8 23.66 38.25 24.17 38.25H24.25V36.03L23.25 35.68C22.61 35.45 21.75 34.99 21.75 33.52C21.75 32.27 22.74 31.24 23.95 31.24H24.25V31C24.25 30.59 24.59 30.25 25 30.25C25.41 30.25 25.75 30.59 25.75 31V31.25H25.83C27.16 31.25 28.25 32.37 28.25 33.75C28.25 34.16 27.91 34.5 27.5 34.5C27.09 34.5 26.75 34.16 26.75 33.75C26.75 33.2 26.34 32.75 25.83 32.75H25.75V34.97L26.75 35.32Z" fill="white"/>
<path d="M35.69 25.21C35.61 25.03 35.47 24.88 35.28 24.8C35.19 24.77 35.1 24.75 35 24.75H31C30.59 24.75 30.25 25.09 30.25 25.5C30.25 25.91 30.59 26.25 31 26.25H33.19L31.52 27.92C31.9 28.25 32.25 28.6 32.58 28.98L34.25 27.31V29.5C34.25 29.91 34.59 30.25 35 30.25C35.41 30.25 35.75 29.91 35.75 29.5V25.5C35.75 25.4 35.73 25.31 35.69 25.21Z" fill="white"/>
</g>
<defs>
<filter id="filter0_b_123_63810" x="-15" y="-5" width="80" height="80" filterUnits="userSpaceOnUse" color-interpolation-filters="sRGB">
<feFlood flood-opacity="0" result="BackgroundImageFix"/>
<feGaussianBlur in="BackgroundImageFix" stdDeviation="8"/>
<feComposite in2="SourceAlpha" operator="in" result="effect1_backgroundBlur_123_63810"/>
<feBlend mode="normal" in="SourceGraphic" in2="effect1_backgroundBlur_123_63810" result="shape"/>
</filter>
</defs>
</svg>
