<svg width="36" height="36" viewBox="0 0 36 36" fill="none" xmlns="http://www.w3.org/2000/svg">
<path d="M28.9494 11.8802V19.6053C28.9494 24.2253 26.3095 26.2052 22.3495 26.2052H9.16444C8.48944 26.2052 7.84445 26.1453 7.24445 26.0103C6.86945 25.9503 6.50946 25.8453 6.17946 25.7253C3.92946 24.8853 2.56445 22.9353 2.56445 19.6053V11.8802C2.56445 7.26022 5.20444 5.28027 9.16444 5.28027H22.3495C25.7095 5.28027 28.1245 6.70527 28.7695 9.96027C28.8745 10.5603 28.9494 11.1752 28.9494 11.8802Z" stroke="#7F56D9" stroke-width="1.5" stroke-miterlimit="10" stroke-linecap="round" stroke-linejoin="round"/>
<path d="M33.4511 16.3804V24.1054C33.4511 28.7254 30.8111 30.7054 26.8511 30.7054H13.6661C12.5561 30.7054 11.5511 30.5555 10.6811 30.2255C8.89611 29.5655 7.68109 28.2005 7.24609 26.0105C7.84609 26.1455 8.49109 26.2054 9.16609 26.2054H22.3511C26.3111 26.2054 28.9511 24.2254 28.9511 19.6054V11.8804C28.9511 11.1754 28.8911 10.5454 28.7711 9.96045C31.6211 10.5604 33.4511 12.5704 33.4511 16.3804Z" stroke="#7F56D9" stroke-width="1.5" stroke-miterlimit="10" stroke-linecap="round" stroke-linejoin="round"/>
<path d="M15.7471 19.7101C17.9342 19.7101 19.7072 17.9371 19.7072 15.7501C19.7072 13.563 17.9342 11.79 15.7471 11.79C13.5601 11.79 11.7871 13.563 11.7871 15.7501C11.7871 17.9371 13.5601 19.7101 15.7471 19.7101Z" stroke="#7F56D9" stroke-width="1.5" stroke-miterlimit="10" stroke-linecap="round" stroke-linejoin="round"/>
<path d="M7.16992 12.4502V19.0502" stroke="#7F56D9" stroke-width="1.5" stroke-miterlimit="10" stroke-linecap="round" stroke-linejoin="round"/>
<path d="M24.332 12.4507V19.0507" stroke="#7F56D9" stroke-width="1.5" stroke-miterlimit="10" stroke-linecap="round" stroke-linejoin="round"/>
</svg>
