<svg width="40" height="40" viewBox="0 0 40 40" fill="none" xmlns="http://www.w3.org/2000/svg">
<path d="M40 20C40 31.0457 31.0457 40 20 40C8.9543 40 0 31.0457 0 20C0 8.9543 8.9543 0 20 0C31.0457 0 40 8.9543 40 20ZM8 20C8 26.6274 13.3726 32 20 32C26.6274 32 32 26.6274 32 20C32 13.3726 26.6274 8 20 8C13.3726 8 8 13.3726 8 20Z" fill="#DCDCDC"/>
<path d="M20 4C20 1.79086 21.8083 -0.0402254 23.9734 0.398676C26.0838 0.82649 28.12 1.59408 30 2.67949C33.0404 4.43486 35.5651 6.95962 37.3205 10C39.0759 13.0404 40 16.4893 40 20C40 22.1708 39.6467 24.318 38.962 26.3596C38.2595 28.4541 35.7696 29.1046 33.8564 28C31.9432 26.8954 31.3657 24.4387 31.7835 22.2694C31.9269 21.5245 32 20.7647 32 20C32 17.8936 31.4455 15.8242 30.3923 14C29.3391 12.1758 27.8242 10.6609 26 9.6077C25.3378 9.22536 24.6432 8.90875 23.9264 8.66053C21.8388 7.93771 20 6.20914 20 4Z" fill="#7F56D9"/>
</svg>
