<svg width="20" height="20" viewBox="0 0 20 20" fill="none" xmlns="http://www.w3.org/2000/svg">
<path d="M16.7513 7.68385C15.243 7.68385 14.6263 6.61718 15.3763 5.30885C15.8096 4.55052 15.5513 3.58385 14.793 3.15052L13.3513 2.32552C12.693 1.93385 11.843 2.16718 11.4513 2.82552L11.3596 2.98385C10.6096 4.29218 9.3763 4.29218 8.61797 2.98385L8.5263 2.82552C8.1513 2.16718 7.3013 1.93385 6.64297 2.32552L5.2013 3.15052C4.44297 3.58385 4.18464 4.55885 4.61797 5.31718C5.3763 6.61718 4.75964 7.68385 3.2513 7.68385C2.38464 7.68385 1.66797 8.39218 1.66797 9.26718V10.7338C1.66797 11.6005 2.3763 12.3172 3.2513 12.3172C4.75964 12.3172 5.3763 13.3838 4.61797 14.6922C4.18464 15.4505 4.44297 16.4172 5.2013 16.8505L6.64297 17.6755C7.3013 18.0672 8.1513 17.8339 8.54297 17.1755L8.63463 17.0172C9.38463 15.7088 10.618 15.7088 11.3763 17.0172L11.468 17.1755C11.8596 17.8339 12.7096 18.0672 13.368 17.6755L14.8096 16.8505C15.568 16.4172 15.8263 15.4422 15.393 14.6922C14.6346 13.3838 15.2513 12.3172 16.7596 12.3172C17.6263 12.3172 18.343 11.6088 18.343 10.7338V9.26718C18.3346 8.40052 17.6263 7.68385 16.7513 7.68385ZM10.0013 12.7088C8.50964 12.7088 7.29297 11.4922 7.29297 10.0005C7.29297 8.50885 8.50964 7.29218 10.0013 7.29218C11.493 7.29218 12.7096 8.50885 12.7096 10.0005C12.7096 11.4922 11.493 12.7088 10.0013 12.7088Z" fill="#7C7C7C"/>
</svg>
