<svg width="20" height="20" viewBox="0 0 20 20" fill="none" xmlns="http://www.w3.org/2000/svg">
<path d="M14.1641 2.02344H5.83073C3.33073 2.02344 1.66406 3.6901 1.66406 6.1901V11.1901C1.66406 13.6901 3.33073 15.3568 5.83073 15.3568V17.1318C5.83073 17.7984 6.5724 18.1984 7.1224 17.8234L10.8307 15.3568H14.1641C16.6641 15.3568 18.3307 13.6901 18.3307 11.1901V6.1901C18.3307 3.6901 16.6641 2.02344 14.1641 2.02344ZM9.99739 12.1651C9.64739 12.1651 9.37239 11.8818 9.37239 11.5401C9.37239 11.1984 9.64739 10.9151 9.99739 10.9151C10.3474 10.9151 10.6224 11.1984 10.6224 11.5401C10.6224 11.8818 10.3474 12.1651 9.99739 12.1651ZM11.0474 8.70677C10.7224 8.92344 10.6224 9.0651 10.6224 9.29844V9.47344C10.6224 9.8151 10.3391 10.0984 9.99739 10.0984C9.65573 10.0984 9.37239 9.8151 9.37239 9.47344V9.29844C9.37239 8.33177 10.0807 7.85677 10.3474 7.67344C10.6557 7.4651 10.7557 7.32344 10.7557 7.10677C10.7557 6.6901 10.4141 6.34844 9.99739 6.34844C9.58073 6.34844 9.23906 6.6901 9.23906 7.10677C9.23906 7.44844 8.95573 7.73177 8.61406 7.73177C8.27239 7.73177 7.98906 7.44844 7.98906 7.10677C7.98906 5.99844 8.88906 5.09844 9.99739 5.09844C11.1057 5.09844 12.0057 5.99844 12.0057 7.10677C12.0057 8.05677 11.3057 8.53177 11.0474 8.70677Z" fill="#7C7C7C"/>
</svg>
