<svg width="60" height="61" viewBox="0 0 60 61" fill="none" xmlns="http://www.w3.org/2000/svg">
<g filter="url(#filter0_d_1218_46141)">
<path d="M2.5 13.5C2.5 7.14873 7.64873 2 14 2H46C52.3513 2 57.5 7.14873 57.5 13.5V45.5C57.5 51.8513 52.3513 57 46 57H14C7.64873 57 2.5 51.8513 2.5 45.5V13.5Z" stroke="#EAECF0" shape-rendering="crispEdges"/>
<path d="M41.3869 34.0733L33.9202 20.6333C32.9169 18.8249 31.5286 17.8333 30.0002 17.8333C28.4719 17.8333 27.0836 18.8249 26.0802 20.6333L18.6136 34.0733C17.6686 35.7883 17.5636 37.4333 18.3219 38.7283C19.0802 40.0233 20.5736 40.7349 22.5336 40.7349H37.4669C39.4269 40.7349 40.9202 40.0233 41.6786 38.7283C42.4369 37.4333 42.3319 35.7766 41.3869 34.0733ZM29.1252 25.9999C29.1252 25.5216 29.5219 25.1249 30.0002 25.1249C30.4785 25.1249 30.8752 25.5216 30.8752 25.9999V31.8333C30.8752 32.3116 30.4785 32.7083 30.0002 32.7083C29.5219 32.7083 29.1252 32.3116 29.1252 31.8333V25.9999ZM30.8286 36.1616C30.7702 36.2083 30.7119 36.2549 30.6536 36.3016C30.5836 36.3483 30.5136 36.3833 30.4436 36.4066C30.3736 36.4416 30.3035 36.4649 30.2219 36.4766C30.1519 36.4883 30.0702 36.4999 30.0002 36.4999C29.9302 36.4999 29.8486 36.4883 29.7669 36.4766C29.6969 36.4649 29.6269 36.4416 29.5569 36.4066C29.4869 36.3833 29.4169 36.3483 29.3469 36.3016C29.2885 36.2549 29.2302 36.2083 29.1719 36.1616C28.9619 35.9399 28.8336 35.6366 28.8336 35.3333C28.8336 35.0299 28.9619 34.7266 29.1719 34.5049C29.2302 34.4583 29.2885 34.4116 29.3469 34.3649C29.4169 34.3183 29.4869 34.2833 29.5569 34.2599C29.6269 34.2249 29.6969 34.2016 29.7669 34.1899C29.9186 34.1549 30.0819 34.1549 30.2219 34.1899C30.3035 34.2016 30.3736 34.2249 30.4436 34.2599C30.5136 34.2833 30.5836 34.3183 30.6536 34.3649C30.7119 34.4116 30.7702 34.4583 30.8286 34.5049C31.0386 34.7266 31.1669 35.0299 31.1669 35.3333C31.1669 35.6366 31.0386 35.9399 30.8286 36.1616Z" fill="#F79009"/>
</g>
<defs>
<filter id="filter0_d_1218_46141" x="0" y="0.5" width="60" height="60" filterUnits="userSpaceOnUse" color-interpolation-filters="sRGB">
<feFlood flood-opacity="0" result="BackgroundImageFix"/>
<feColorMatrix in="SourceAlpha" type="matrix" values="0 0 0 0 0 0 0 0 0 0 0 0 0 0 0 0 0 0 127 0" result="hardAlpha"/>
<feOffset dy="1"/>
<feGaussianBlur stdDeviation="1"/>
<feComposite in2="hardAlpha" operator="out"/>
<feColorMatrix type="matrix" values="0 0 0 0 0.0627451 0 0 0 0 0.0941176 0 0 0 0 0.156863 0 0 0 0.05 0"/>
<feBlend mode="normal" in2="BackgroundImageFix" result="effect1_dropShadow_1218_46141"/>
<feBlend mode="normal" in="SourceGraphic" in2="effect1_dropShadow_1218_46141" result="shape"/>
</filter>
</defs>
</svg>
