<svg xmlns="http://www.w3.org/2000/svg" viewBox="0 0 72 72" width="100%" height="100%">
  <g id="color">
    <path fill="#fcea2b" d="M29.2 47.2c-.4 3.4-2.8 5.2-5.2 7.6s-1.6 6-.8 7.6 4.8 3.6 8 2.4 5.6-3.6 8-5.6 9.2-8.8 9.2-8.8 10.8-9.2 13.2-17.6-3.2-15.6-3.2-15.6L50.8 8.8s-5.2-6.4-11.6-4-4.4 6-4.4 6-4.8-6.8-11.2-4-3.6 7.6-3.6 7.6l1.2 13.6c-3.2-4.4-6.4-6.8-9.2-4s2 7.6 2 7.6l7.2 9.6-2 2s-5.6-5.6-8.8-2.4 2 7.6 2 7.6 5.2 6 9.6 6c5.6-.2 5.6-6 5.6-6z"/>
    <path fill="#fcea2b" d="M31.2 52c.8-1.6.8-2 2-2.4s2-3.6 1.2-4-2-3.2-3.6-3.2c-1.6 0-3.2 2.4-3.2 2.4s-5.6-6.8-8.4-7.2c-3.6-.8-5.2 1.6-5.2 1.6"/>
    <path fill="#e27022" d="M32.4 61.2c2-1.6 3.2-3.2 4.8-4.8s5.2-6.8 7.2-8.4c.8-.8 8-7.2 11.2-10.8 1.6-1.6 4-6.8 3.6-11.6-.4-4.8-3.6-10.8-3.6-10.8M29.2 47.2c-.4 3.4-2.8 5.2-5.2 7.6s-1.6 6-.8 7.6M16.4 46.4c-2 1.2-2.8 2.8-3.2 4 .8 1.2 2 2.8 3.2 4 1.2 1.2 2.8 2.8 4.8 3.2"/>
  </g>
  <g id="line">
    <path fill="none" stroke="#000" stroke-linecap="round" stroke-linejoin="round" stroke-width="2" d="M50.8 12.4s-6.8 8-10.4 5.6-1.6-11.2-7.2-12.8c-5.6-1.6-9.2 4.4-9.2 4.4s-5.6-6.4-11.2-3.2c-5.6 3.2-4 8.4-4 8.4L12.8 34M25.2 41.2l1.2 10M24 50.4c-.4 2.4-.4 5.2 1.2 7.2M19.6 38.4c.8-1.6 3.2-3.6 4.8-1.2 1.2 2 3.6 6.4 3.6 6.4M15.6 33.2l6 6M12.8 42.4l5.6 5.6M16.4 46.4s4.8 6 8 6c3.2 0 4.4-4 4.8-5.6"/>
    <path fill="none" stroke="#000" stroke-linecap="round" stroke-linejoin="round" stroke-width="2" d="M29.2 47.2c-.4 3.4-2.8 5.2-5.2 7.6s-1.6 6-.8 7.6 4.8 3.6 8 2.4 5.6-3.6 8-5.6 9.2-8.8 9.2-8.8 10.8-9.2 13.2-17.6-3.2-15.6-3.2-15.6L50.8 8.8s-5.2-6.4-11.6-4-4.4 6-4.4 6-4.8-6.8-11.2-4-3.6 7.6-3.6 7.6l1.2 13.6c-3.2-4.4-6.4-6.8-9.2-4s2 7.6 2 7.6l7.2 9.6-2 2s-5.6-5.6-8.8-2.4 2 7.6 2 7.6 5.2 6 9.6 6c5.6-.2 5.6-6 5.6-6z"/>
    <path fill="none" stroke="#000" stroke-linecap="round" stroke-linejoin="round" stroke-width="2" d="M31.2 52c.8-1.6.8-2 2-2.4s2-3.6 1.2-4-2-3.2-3.6-3.2c-1.6 0-3.2 2.4-3.2 2.4s-5.6-6.8-8.4-7.2c-3.6-.8-5.2 1.6-5.2 1.6"/>
  </g>
</svg>
