<svg width="18" height="18" viewBox="0 0 18 18" fill="none" xmlns="http://www.w3.org/2000/svg">
<g id="&#240;&#159;&#166;&#134; emoji &#34;waving hand sign&#34;">
<path id="Vector" d="M4.23052 13.9576C4.0805 13.9276 3.96049 13.8976 3.81047 13.8376C3.66045 13.7776 3.54043 13.7476 3.42042 13.6876C3.15039 13.5676 2.91036 13.4175 2.67033 13.2375C2.19027 12.9075 1.80022 12.4574 1.50018 11.9174C1.20015 11.4073 1.02013 10.8072 0.990121 10.2372C0.960118 9.93711 0.990121 9.66708 1.02013 9.36705C1.05013 9.21703 1.08013 9.09701 1.11014 8.94699C1.14014 8.79697 1.20015 8.67696 1.23015 8.52694L1.26015 8.94699C1.26015 9.09701 1.29016 9.21703 1.32016 9.36705C1.35017 9.63708 1.41017 9.90711 1.47018 10.1471C1.5902 10.6572 1.77022 11.1373 2.04025 11.5873C2.31028 12.0374 2.61032 12.4574 3.00037 12.8475C3.18039 13.0275 3.39042 13.2075 3.60044 13.3875C3.69045 13.4775 3.81047 13.5676 3.93048 13.6576L4.23052 13.9576ZM4.14051 15.0377C4.0505 15.0977 3.93048 15.1278 3.81047 15.1578C3.69045 15.1878 3.60044 15.2178 3.48043 15.2178C3.2704 15.2478 3.03037 15.2778 2.79034 15.2478C2.34029 15.2178 1.86023 15.0977 1.47018 14.8877C1.05013 14.6777 0.690085 14.3477 0.450055 13.9576C0.33004 13.7776 0.210026 13.5676 0.120015 13.3575C0.0900111 13.2675 0.0600073 13.1475 0.0300037 13.0275C0.0300037 12.9375 0 12.8475 0 12.7275C0.090011 12.8175 0.150018 12.9075 0.210026 12.9675C0.300037 13.0575 0.360044 13.1475 0.420052 13.2075C0.57007 13.3575 0.690085 13.5076 0.840103 13.6276C1.14014 13.8976 1.44018 14.1376 1.80022 14.3177C2.13026 14.4977 2.52031 14.6477 2.88035 14.7677C3.06038 14.8277 3.2704 14.8577 3.48043 14.9177C3.57044 14.9477 3.69045 14.9477 3.78046 14.9777C3.93048 15.0077 4.02049 15.0077 4.14051 15.0377ZM10.9213 0.455952C11.0714 0.485956 11.1914 0.545963 11.3414 0.605971C11.4914 0.665978 11.6114 0.725985 11.7314 0.785993C12.0015 0.936011 12.2415 1.08603 12.4815 1.26605C12.9616 1.6261 13.3516 2.10615 13.6217 2.64622C13.8917 3.18629 14.0417 3.78636 14.0417 4.35643C14.0417 4.65647 14.0117 4.9265 13.9517 5.22654C13.9217 5.37656 13.8917 5.49657 13.8317 5.64659C13.7717 5.79661 13.7417 5.91662 13.6817 6.03664L13.6517 5.61659C13.6517 5.46657 13.6517 5.34655 13.6217 5.19653L13.5317 4.38643C13.4416 3.87637 13.2616 3.36631 13.0216 2.88625C12.7816 2.40619 12.4815 1.98614 12.1215 1.59609C11.9415 1.38607 11.7314 1.20604 11.5514 0.996019C11.4614 0.906007 11.3414 0.815996 11.2214 0.725985L10.9213 0.455952ZM13.5317 0.335938C13.6517 0.365941 13.7417 0.395945 13.8317 0.455952C13.9217 0.485956 14.0417 0.545963 14.1317 0.605971C14.3118 0.725985 14.4918 0.846 14.6718 0.996019C15.0018 1.29606 15.2719 1.6561 15.4219 2.07615C15.6019 2.4962 15.6619 2.94626 15.6019 3.39631C15.5719 3.60634 15.5119 3.81636 15.4519 4.02639C15.4219 4.1164 15.3619 4.23642 15.3319 4.32643C15.2719 4.41644 15.2419 4.50645 15.1519 4.59646V4.29642V3.99639C15.1519 3.78636 15.1219 3.60634 15.1219 3.42632C15.0618 3.03627 15.0018 2.67622 14.8518 2.34618C14.7018 1.98614 14.5218 1.6861 14.3118 1.35606C14.1917 1.20604 14.0717 1.02602 13.9517 0.876004C13.8917 0.785993 13.8317 0.725985 13.7417 0.635974C13.6817 0.485956 13.5917 0.395945 13.5317 0.335938Z" fill="#42ADE2"/>
<path id="Vector_2" d="M2.40021 4.80578C1.80014 5.07582 1.59011 5.79591 1.86015 6.39598L5.64061 14.2869L7.74087 13.2968L3.9604 5.37585C3.69037 4.77578 3.00029 4.50575 2.40021 4.80578ZM12.3314 11.0766L14.5517 10.0264L10.2312 1.02532C9.93114 0.425247 9.21105 0.155214 8.58097 0.455251C7.9809 0.755288 7.71086 1.47538 8.0109 2.10545L12.3314 11.0766Z" fill="#FBCD2E"/>
<path id="Vector_3" d="M8.61069 0.425306C8.55068 0.45531 8.49067 0.485314 8.43066 0.545321C9.00073 0.395303 9.60081 0.665336 9.87084 1.2054L14.1914 10.2065L14.5814 10.0265L10.2609 1.02538C9.96085 0.395303 9.24076 0.12527 8.61069 0.425306Z" fill="#EBA352"/>
<path id="Vector_4" d="M7.74112 13.267L10.0514 12.1569L5.64086 2.97573C5.34083 2.34565 4.56073 2.04561 3.93065 2.34565C3.30058 2.64569 3.03054 3.42578 3.33058 4.05586L7.74112 13.267Z" fill="#FBCD2E"/>
<path id="Vector_5" d="M3.93002 2.37585C3.87001 2.40585 3.81001 2.43585 3.75 2.49586C4.32007 2.34584 4.98015 2.61588 5.25018 3.18595L7.98052 8.91665L8.6406 9.3067L5.64023 3.00592C5.34019 2.34584 4.5901 2.07581 3.93002 2.37585Z" fill="#EBA352"/>
<path id="Vector_6" d="M9.69132 11.4371L12.0016 10.327L7.59106 1.14586C7.29102 0.51578 6.51093 0.215743 5.88085 0.545783C5.25077 0.84582 4.98074 1.62592 5.28078 2.25599L9.69132 11.4371Z" fill="#FBCD2E"/>
<path id="Vector_7" d="M5.88115 0.514518C5.82114 0.544521 5.76114 0.604529 5.70113 0.634532C6.2712 0.484514 6.93128 0.754547 7.20131 1.32462L10.2917 7.80541L10.9518 8.19546L7.59136 1.1446C7.29132 0.484514 6.51123 0.214481 5.88115 0.514518ZM2.40073 4.80504C2.34072 4.83505 2.28071 4.86505 2.2207 4.92506C2.76077 4.77504 3.33084 5.04507 3.57087 5.58514L5.82114 10.2957L6.48123 10.6858L3.96092 5.40512C3.69088 4.77504 3.0008 4.50501 2.40073 4.80504Z" fill="#EBA352"/>
<path id="Vector_8" d="M17.6425 3.90518C16.8324 3.2751 15.5123 3.96519 14.8522 6.12545C14.4021 7.62564 14.3421 8.07569 13.382 8.52575L12.842 7.41561C12.842 7.41561 4.32091 11.5261 4.65095 12.1862C4.65095 12.1862 5.67107 15.3666 7.41129 16.8368C9.9916 19.057 16.0223 16.6867 16.2924 10.956C16.4424 7.62564 18.5126 4.59527 17.6425 3.90518Z" fill="#FBCD2E"/>
<g id="Group">
<path id="Vector_9" d="M17.6419 3.90534C17.4918 3.78532 17.3118 3.72532 17.1318 3.69531C17.1618 3.72532 17.2218 3.72532 17.2518 3.75532C18.1519 4.4454 17.2218 6.0356 16.7117 7.47578C16.2917 8.61592 15.9316 9.78606 15.9917 10.9262C16.2317 15.9068 11.2211 18.2771 8.2207 17.377C11.1611 18.6071 16.6217 16.2669 16.3817 11.0762C16.3217 9.93608 16.6517 8.82594 17.1018 7.62579C17.5819 6.18562 18.512 4.59542 17.6419 3.90534Z" fill="#EBA352"/>
<path id="Vector_10" d="M13.6518 8.40625C11.7915 8.61628 9.06121 11.2866 10.9814 14.197C9.57128 11.2566 11.8816 9.27636 13.3517 8.58627C13.5018 8.46626 13.6518 8.40625 13.6518 8.40625Z" fill="#EBA352"/>
</g>
</g>
</svg>
